<?xml version="1.0" encoding="UTF-8"?>
<svg width="128px" height="128px" viewBox="0 0 128 128" version="1.1" xmlns="http://www.w3.org/2000/svg" xmlns:xlink="http://www.w3.org/1999/xlink">
    <title>squircle/squircle</title>
    <g id="Page-1" stroke="none" stroke-width="1" fill="none" fill-rule="evenodd">
        <g id="Masks" transform="translate(-256.000000, -928.000000)" fill="#000000">
            <path d="M322.199965,928.129914 C352.259361,928.256554 366.669802,937.770386 370.014346,940.941664 C379.138704,949.104461 384.585113,966.655231 383.949891,991.999667 C384.585059,1017.34494 379.138659,1034.89558 370.014346,1043.05834 C366.703248,1046.1979 352.546463,1055.5538 323.097056,1055.86349 L322.199965,1055.87009 L321.836517,1055.89145 L321.836517,1055.89145 L321.216336,1055.92102 L321.216336,1055.92102 L320.800197,1055.93752 L320.800197,1055.93752 L320.316613,1055.95387 L320.316613,1055.95387 L319.768024,1055.96911 L319.768024,1055.96911 L319.156869,1055.98229 C319.049932,1055.98426 318.940489,1055.9861 318.828592,1055.9878 L318.128164,1055.99607 C308.285749,1056.07964 283.00705,1054.93961 269.306625,1041.91647 C259.685694,1031.9798 256.465023,1017.13822 256.093613,999.083289 L256.046792,996.506979 L256.046792,996.506979 L256.032423,995.606588 L256.032423,995.606588 L256.019855,994.686865 C256.01795,994.532016 256.01615,994.376398 256.014468,994.22003 L256.005933,993.272969 C256.003644,992.95438 256.00195,992.632938 256,992.308791 L256,992.30841 L256,991.69159 L256.0053,990.727297 L256.0053,990.727297 L256.014085,989.780148 L256.014085,989.780148 L256.025659,988.851026 L256.025659,988.851026 L256.039327,987.940813 L256.039327,987.940813 L256.093613,984.916711 L256.093613,984.916711 C256.465023,966.861783 259.685694,952.020204 269.306625,942.083535 C282.768872,929.286796 307.410322,927.963587 317.600987,928 L318.355949,928.006107 L318.355949,928.006107 L319.051314,928.015821 L319.051314,928.015821 L319.68449,928.028855 L319.68449,928.028855 L320.252883,928.044187 L320.252883,928.044187 L320.753901,928.060793 L320.753901,928.060793 L321.184952,928.077651 L321.184952,928.077651 L321.826783,928.108031 L321.826783,928.108031 L322.199965,928.129914 L322.199965,928.129914 Z" id="squircle/squircle"></path>
        </g>
    </g>
</svg>