<?xml version="1.0" encoding="UTF-8"?>
<svg width="128px" height="128px" viewBox="0 0 128 128" version="1.1" xmlns="http://www.w3.org/2000/svg" xmlns:xlink="http://www.w3.org/1999/xlink">
    <title>pentagon/pentagon</title>
    <g id="Page-1" stroke="none" stroke-width="1" fill="none" fill-rule="evenodd">
        <g id="Masks" transform="translate(-1280.000000, -928.000000)" fill="#000000" fill-rule="nonzero">
            <path d="M1336.11134,930.48993 L1318.09085,937.869732 C1317.53184,938.098661 1316.97924,938.34272 1316.43368,938.601635 L1298.84704,946.948049 C1286.49016,952.812476 1279.04103,965.611308 1280.09968,979.159095 L1281.60638,998.440676 C1281.65312,999.038811 1281.71635,999.635566 1281.79599,1000.23027 L1284.36349,1019.40125 C1286.16748,1032.87133 1296.13636,1043.85413 1309.45235,1047.04186 L1328.40402,1051.57873 C1328.99193,1051.71947 1329.5836,1051.84423 1330.17838,1051.95286 L1349.35182,1055.45477 C1362.82363,1057.9153 1376.43387,1051.90422 1383.60495,1040.32656 L1393.81103,1023.84892 C1394.12763,1023.33776 1394.43008,1022.81811 1394.71803,1022.29054 L1404.00037,1005.28386 C1410.52241,993.334479 1408.96512,978.636621 1400.08111,968.293501 L1387.43714,953.572888 C1387.04491,953.116239 1386.64016,952.67032 1386.22334,952.235634 L1372.7867,938.22302 C1363.34574,928.37736 1348.77304,925.304671 1336.11134,930.48993 Z" id="pentagon/pentagon"></path>
        </g>
    </g>
</svg>