<?xml version="1.0" encoding="UTF-8"?>
<svg width="128px" height="128px" viewBox="0 0 128 128" version="1.1" xmlns="http://www.w3.org/2000/svg" xmlns:xlink="http://www.w3.org/1999/xlink">
    <title>octagon/octagon</title>
    <g id="Page-1" stroke="none" stroke-width="1" fill="none" fill-rule="evenodd">
        <g id="Masks" transform="translate(-1024.000000, -928.000000)" fill="#000000" fill-rule="nonzero">
            <path d="M1089.38575,928.492119 L1064.97685,932.796066 C1056.51863,934.287479 1048.9993,939.077822 1044.07302,946.113276 L1029.85667,966.416323 C1024.93039,973.451776 1023.00071,982.156032 1024.49212,990.614253 L1028.79607,1015.02315 C1030.28748,1023.48137 1035.07782,1031.0007 1042.11328,1035.92698 L1062.41632,1050.14333 C1069.45178,1055.06961 1078.15603,1056.99929 1086.61425,1055.50788 L1111.02315,1051.20393 C1119.48137,1049.71252 1127.0007,1044.92218 1131.92698,1037.88672 L1146.14333,1017.58368 C1151.06961,1010.54822 1152.99929,1001.84397 1151.50788,993.385747 L1147.20393,968.976849 C1145.71252,960.518628 1140.92218,952.999295 1133.88672,948.073018 L1113.58368,933.856671 C1106.54822,928.930393 1097.84397,927.000706 1089.38575,928.492119 Z" id="octagon/octagon"></path>
        </g>
    </g>
</svg>